<svg xmlns="http://www.w3.org/2000/svg" viewBox="0 0 48 48"><path fill="#374f68" d="M5,11V47H1V11a2,2,0,0,1,4,0Z"/><path fill="#425b72" d="M5,11c0,35.18-.1,34,0,34a2,2,0,0,1-2-2V9A2,2,0,0,1,5,11Z"/><rect width="38" height="4" x="5" y="15" fill="#7c7d7d"/><path fill="#919191" d="M41,15v2H9a2,2,0,0,1-2-2Z"/><rect width="38" height="4" x="5" y="37" fill="#7c7d7d"/><path fill="#919191" d="M41,37v2H9a2,2,0,0,1-2-2Z"/><path fill="#374f68" d="M47,11V47H43V11a2,2,0,0,1,4,0Z"/><path fill="#425b72" d="M47,11V44.82a2.84,2.84,0,0,1-1.12-.7c-1.23-1.24-.88.55-.88-34.85a1.69,1.69,0,0,1,.5-.2A2,2,0,0,1,47,11Z"/><rect width="24" height="12" x="12" y="25" fill="#a87e6b"/><path fill="#be927c" d="M36,25V35H20a6,6,0,0,1-6-6V25Z"/><rect width="14" height="14" x="9" y="1" fill="#a87e6b"/><path fill="#be927c" d="M23,1V13H17a6,6,0,0,1-6-6V1Z"/><rect width="12" height="12" x="27" y="3" fill="#a87e6b"/><path fill="#be927c" d="M39,3V13H35a6,6,0,0,1-6-6V3Z"/><rect width="4" height="4" x="22" y="25" fill="#f6ccaf"/><path fill="#ffdec7" d="M26,25v3a3,3,0,0,1-3-3Z"/><rect width="4" height="4" x="14" y="1" fill="#f6ccaf"/><path fill="#ffdec7" d="M18,1V4a3,3,0,0,1-3-3Z"/><rect width="4" height="4" x="31" y="3" fill="#f6ccaf"/><path fill="#ffdec7" d="M35,3V6a3,3,0,0,1-3-3Z"/><path d="M45,8a3,3,0,0,0-3,3v3H40V3a1,1,0,0,0-1-1H27a1,1,0,0,0-1,1V14H24V1a1,1,0,0,0-1-1H9A1,1,0,0,0,8,1V14H6V11a3,3,0,0,0-6,0V47a1,1,0,0,0,1,1H5a1,1,0,0,0,1-1V42H42v5a1,1,0,0,0,1,1h4a1,1,0,0,0,1-1V11A3,3,0,0,0,45,8ZM23,26h2v2H23Zm-1,4h4a1,1,0,0,0,1-1V26h8V36H13V26h8v3A1,1,0,0,0,22,30Zm14-6H12a1,1,0,0,0-1,1V36H6V20H42V36H37V25A1,1,0,0,0,36,24ZM34,4V6H32V4ZM28,4h2V7a1,1,0,0,0,1,1h4a1,1,0,0,0,1-1V4h2V14H28ZM17,2V4H15V2ZM10,2h3V5a1,1,0,0,0,1,1h4a1,1,0,0,0,1-1V2h3V14H10ZM42,16v2H6V16ZM4,46H2V11a1,1,0,0,1,2,0Zm2-6V38H42v2Zm40,6H44V11a1,1,0,0,1,2,0Z"/><path d="M18 32H16a1 1 0 0 0 0 2h2A1 1 0 0 0 18 32zM15 10H13a1 1 0 0 0 0 2h2A1 1 0 0 0 15 10z"/></svg>