<svg xmlns="http://www.w3.org/2000/svg" viewBox="0 0 48 48"><path fill="#747575" d="M47,37v2a2,2,0,0,1-2,2H42.46a4,4,0,0,0-6.92,0H12.46a4,4,0,0,0-6.92,0H3a2,2,0,0,1-2-2V37a2,2,0,0,1,2-2H45A2,2,0,0,1,47,37Z"/><rect width="6" height="6" x="1" y="29" fill="#7c7d7d"/><path fill="#747575" d="M7,29v5H6a4,4,0,0,1-4-4V29Z"/><path fill="#dad7e5" d="M11,7V35H7V8A3,3,0,0,0,4,5H3A2,2,0,0,1,3,1H5A6,6,0,0,1,11,7Z"/><path fill="#c6c3d8" d="M9,31V7A4,4,0,0,0,5,3,2,2,0,0,1,3,1,2,2,0,0,0,1,3.18,2.08,2.08,0,0,0,3.11,5H4A3,3,0,0,1,7,8V35h4V33A2,2,0,0,1,9,31Z"/><path fill="#374f68" d="M42.28,45.28A4,4,0,1,1,39,39,4,4,0,0,1,42.28,45.28Z"/><path fill="#425b72" d="M42.64,44.64a4,4,0,0,1-5.28-5.28A4,4,0,0,1,42.64,44.64Z"/><path fill="#374f68" d="M12.28,45.28A4,4,0,1,1,9,39,4,4,0,0,1,12.28,45.28Z"/><path fill="#425b72" d="M12.64,44.64a4,4,0,0,1-5.28-5.28A4,4,0,0,1,12.64,44.64Z"/><rect width="26" height="14" x="11" y="21" fill="#a87e6b"/><path fill="#be927c" d="M37,21V33H19a6,6,0,0,1-6-6V21Z"/><rect width="14" height="14" x="11" y="7" fill="#a87e6b"/><path fill="#be927c" d="M25,7V19H19a6,6,0,0,1-6-6V7Z"/><rect width="12" height="12" x="25" y="9" fill="#a87e6b"/><path fill="#be927c" d="M37,9V19H33a6,6,0,0,1-6-6V9Z"/><rect width="4" height="4" x="16" y="7" fill="#f6ccaf"/><path fill="#ffdec7" d="M20,7v3a3,3,0,0,1-3-3Z"/><rect width="4" height="4" x="29" y="9" fill="#f6ccaf"/><path fill="#ffdec7" d="M33,9v3a3,3,0,0,1-3-3Z"/><rect width="4" height="4" x="22" y="21" fill="#f6ccaf"/><path fill="#ffdec7" d="M26,21v3a3,3,0,0,1-3-3Z"/><path fill="#7c7d7d" d="M47,37v1H6a3,3,0,0,1-3-3H45A2,2,0,0,1,47,37Z"/><path d="M45,34H38V9a1,1,0,0,0-1-1H26V7a1,1,0,0,0-1-1H11.92A7,7,0,0,0,5,0H3A3,3,0,0,0,3,6H4A2,2,0,0,1,6,8V28H1a1,1,0,0,0-1,1c0,6.61-.11,6.31.3,6.71-.36.76-.3,1-.3,3.29a3,3,0,0,0,3,3H4.1a5,5,0,1,0,9.8,0H34.1a5,5,0,1,0,9.8,0H45a3,3,0,0,0,3-3V37A3,3,0,0,0,45,34ZM12,22h9v3a1,1,0,0,0,1,1h4a1,1,0,0,0,1-1V22h9V34H12Zm13,0v2H23V22Zm7-12v2H30V10Zm-4,0v3a1,1,0,0,0,1,1h4a1,1,0,0,0,1-1V10h2V20H26V10ZM24,20H12V8h3v3a1,1,0,0,0,1,1h4a1,1,0,0,0,1-1V8h3ZM19,8v2H17V8ZM4,4H3A1,1,0,0,1,3,2H5a5,5,0,0,1,5,5V34H8V8A4,4,0,0,0,4,4ZM2,30H6v4H2ZM9,46a3,3,0,1,1,3-3A3,3,0,0,1,9,46Zm30,0a3,3,0,1,1,3-3A3,3,0,0,1,39,46Zm7-7a1,1,0,0,1-1,1H43A4.94,4.94,0,0,0,35,40H13A4.94,4.94,0,0,0,5,40H3a1,1,0,0,1-1-1V37a1,1,0,0,1,1-1H45a1,1,0,0,1,1,1Z"/><path d="M9 42a1 1 0 0 0 0 2A1 1 0 0 0 9 42zM39 42a1 1 0 0 0 0 2A1 1 0 0 0 39 42zM17 16H15a1 1 0 0 0 0 2h2A1 1 0 0 0 17 16zM17 30H15a1 1 0 0 0 0 2h2A1 1 0 0 0 17 30z"/></svg>