<svg xmlns="http://www.w3.org/2000/svg" viewBox="0 0 750 440">
  <defs>
    <style>    .cls-1{fill:#ebebeb}.cls-2{fill:#e0e0e0}.cls-3{fill:#f5f5f5}.cls-4{fill:#35353f}.cls-5{fill:#585867}.cls-6{fill:#fafafa}.cls-13,.cls-7{fill:#fc6060}.cls-12,.cls-8{fill:#fff}.cls-9{fill:#34353f}.cls-10{fill:#b22626}.cls-11{fill:#25252d}.cls-12{opacity:.7}.cls-13{opacity:.3}.cls-14{fill:#dadae0}.cls-15,.cls-16{opacity:.2}.cls-17{fill:#ffbe9d}.cls-18{fill:#aa6550}.cls-19{opacity:.3}
    </style>
  </defs>
  <g id="bg-elements">
    <path class="cls-1" d="M14.18 198.32s-9.2 3-.3 22.7 15.3 29.6 15.3 29.6 1.5 4.6-2.3 5.1-12-1.2-13.9 3.3c-2 4.7 1.3 9.4 8.2 13.6s21.5 14.2 22.8 15.1 2.5 3 0 3.8-21.3 1.8-20.2 10.7 22 17.8 24.3 18.8 2.8 2 2.5 3.3-6.6 1-11.9 1.6-11.4 2.1-10.4 7.2 13.2 16.2 43.9 20.6l14.3 1.1 8.4-11.8c16.4-26.3 15.8-42.8 12.6-46.8s-8.3-.4-12.1 3.3-7.8 8.7-8.9 8.1-1.6-1.7-.9-4.1 7.6-24.1 1.5-30.7-19 7.1-21.2 8.5-3.1-.9-2.9-2.5 2.1-19.2 3.2-27.2-.3-13.5-5.1-15-8.7 5.9-11.6 8.5-5.3-1.6-5.3-1.6-3.4-11.2-12.7-30.8-17.7-14.3-17.7-14.3"/>
    <path class="cls-2" d="M87.18 358.12c-6.8-14.4-18.3-40.2-28.4-62.3s-19.2-42.1-25.9-56.5L25 222.22l-2.2-4.6-.6-1.2c-.1-.1-.1-.3-.2-.4a1.09 1.09 0 01.2.4l.6 1.2c.5 1.1 1.3 2.6 2.2 4.6 1.9 4 4.7 9.8 8.1 17 6.8 14.4 15.9 34.4 26 56.4s21.6 47.9 28.3 62.4"/>
    <path class="cls-2" d="M24.38 261.92c.3.1.7.2 1 .3.6.2 1.5.6 2.6 1.1 2.2.9 5.2 2.3 8.5 3.9l8.4 4 2.6 1.2a4.05 4.05 0 01.9.5c-.3-.1-.7-.2-1-.3-.6-.2-1.5-.6-2.6-1.1-2.2-1-5.2-2.4-8.5-3.9l-8.4-4-2.6-1.2c-.28-.2-.6-.3-.9-.5zm25 10.1c-.1 0 2.4-6.4 5.7-14.1s6-14 6.1-14-2.4 6.4-5.7 14.1-5.9 13.98-6.1 13.98zm14 34.6l.6-.9c.5-.6 1.1-1.4 1.8-2.3 1.5-1.9 3.6-4.5 5.8-7.5s4.1-5.8 5.5-7.8l1.6-2.4.6-.9a2.62 2.62 0 01-.5.9c-.3.6-.9 1.4-1.5 2.5-1.3 2.1-3.2 4.9-5.4 7.9s-4.3 5.6-5.9 7.5c-.8.9-1.4 1.7-1.9 2.2-.2.3-.5.5-.7.8zm-24.7-4.2a3.4 3.4 0 011 .1l2.7.3c2.2.3 5.3.8 8.7 1.3s6.5 1 8.7 1.4l2.6.5a2.92 2.92 0 01.9.2 3.4 3.4 0 01-1-.1l-2.6-.3c-2.2-.3-5.3-.8-8.7-1.3s-6.5-1-8.7-1.4l-2.6-.5a1.64 1.64 0 01-1-.2zm8.4 32.2a6.15 6.15 0 011.3.1l3.4.4c2.9.4 6.8.9 11.2 1.5s8.3 1.2 11.2 1.7l3.4.5a5.28 5.28 0 011.2.3 6.15 6.15 0 01-1.3-.1l-3.4-.4c-2.9-.4-6.8-.9-11.2-1.6s-8.3-1.2-11.2-1.7l-3.4-.6a2.46 2.46 0 01-1.2-.1zm30.9 4.2a4.44 4.44 0 01.8-1.1c.6-.8 1.3-1.7 2.2-2.9 1.9-2.5 4.4-5.9 7.1-9.8s5.1-7.4 6.7-10l2-3.1a4.44 4.44 0 01.8-1.1L97 312c-.4.8-1.1 1.8-1.9 3.1-1.6 2.6-3.9 6.2-6.6 10.1s-5.3 7.3-7.2 9.7c-1 1.2-1.8 2.2-2.3 2.9z"/>
    <path class="cls-1" d="M736.51 350.73a13.77 13.77 0 013.5 10.1 24.83 24.83 0 01-3.2 10.3c-3.4 6.2-9.8 11.2-15.9 14.8-3.5-7-1.3-15.8 0-20.2 2.1-7.1 10.3-18.3 15.6-15m-13.7 48.4a11.67 11.67 0 017.7-8.8 15.15 15.15 0 0111.8 1 6.54 6.54 0 013.8 4 4.94 4.94 0 01-1.8 4.7 9.7 9.7 0 01-4.8 2c-6.1 1-12 .9-16.7-2.9"/>
    <path class="cls-2" d="M707.6 416.13c.2-.4.5-.9.7-1.3l2.1-3.3a39.72 39.72 0 018.4-10 25 25 0 0111.8-5.4 17.85 17.85 0 014-.1c.4 0 .7.1 1.1.1a.6.6 0 01.4.1 32.52 32.52 0 00-5.4.2 25 25 0 00-11.6 5.5c-4 3.1-6.5 7.1-8.5 9.8-1 1.4-1.7 2.5-2.3 3.2a1.52 1.52 0 01-.7 1.2z"/>
    <path class="cls-2" d="M731 359.83a1.42 1.42 0 01-.2.6l-.6 1.7c-.5 1.5-1.3 3.6-2.3 6.3-2 5.3-4.8 12.5-8.1 20.4s-6.4 15-8.8 20.1c-1.2 2.6-2.1 4.6-2.8 6-.3.7-.6 1.2-.8 1.6l-.3.6a1.42 1.42 0 01.2-.6c.2-.4.4-1 .7-1.7l2.7-6.1c2.3-5.1 5.3-12.3 8.6-20.2s6.2-15.1 8.2-20.3l2.4-6.2c.3-.7.5-1.2.7-1.7a1.76 1.76 0 00.4-.5z"/>
    <path class="cls-1" d="M711.71 399.23a27.19 27.19 0 00-6.1-24c-1.5-1.6-3.6-3.2-5.7-2.4s-2.7 3.3-2.8 5.5a23.24 23.24 0 0014.2 21.4"/>
    <path class="cls-2" d="M704 381.73a4.74 4.74 0 011 1 10.59 10.59 0 011 1.2c.4.5.8 1.1 1.2 1.7a25.28 25.28 0 011.3 2.2c.5.9.9 1.8 1.3 2.7a25.18 25.18 0 011.8 6.5 30.78 30.78 0 01.2 6.8 13.52 13.52 0 01-.5 2.9 23.35 23.35 0 01-.7 2.5 15.88 15.88 0 01-.7 2 10.09 10.09 0 01-.7 1.5 7.46 7.46 0 01-.7 1.2c-.1 0 .8-1.8 1.7-4.8.2-.8.4-1.6.6-2.5a28.86 28.86 0 00.4-2.9 30.06 30.06 0 00-.2-6.7 27.62 27.62 0 00-1.8-6.4c-.4-.9-.8-1.9-1.2-2.7a15.92 15.92 0 00-1.3-2.2c-1.5-2.5-2.8-3.9-2.7-4z"/>
    <path class="cls-3" d="M322.5 326.62c-25.6-12.9-35.3-42.3-38.3-69.6-.5-4.6-1.7-9.3-.1-13.5s6.2-7.7 10.5-6.4c3.6 1.1 5.6 4.8 8 7.8a26.22 26.22 0 0012.1 8.6c3.1 1.1 6.8 1.5 9.4-.5 3.6-2.7 3.3-8.2 2.6-12.7l-3.8-25.2c-.7-4.5-1.4-9.1-.6-13.6s3.3-8.9 7.4-10.7 9.8-.1 11.3 4.2c.6 1.8.5 3.7.9 5.6s1.6 3.8 3.4 4.1 3.5-1.3 4.6-2.8c4-5.2 6.3-11.5 8.4-17.8s4.1-12.6 7.6-18.2 8.8-10.3 15.2-11.6 13.9 1.7 16.4 7.8-.2 13.1-3.5 18.8a102.79 102.79 0 01-18 23c-1.3 1.2-2.7 2.5-3 4.3-.5 3.1 2.7 5.7 5.8 6.3 3.5.6 7.1-.2 10.7-.3s7.6.9 9.4 4c2.5 4.3-.6 9.7-4 13.4A89 89 0 01371.5 250c-3.1 1.7-6.5 3.3-8.8 6s-3.4 7-1.3 9.9 6.4 3.4 9.7 2.2 6.2-3.5 9.3-5.2c5.9-3.2 13.9-4 18.6.8 3.1 3.1 4 8 3.3 12.4s-2.9 8.4-5.2 12.1c-8.2 13.1-19.6 24.3-33.2 31.3s-26.4 10.3-41.4 7.1"/>
    <path class="cls-2" d="M327 308.62a423.78 423.78 0 019.7-45.8l3.2-11.9c1-3.9 2.1-7.8 3.3-11.5a198.16 198.16 0 018.4-20.9c3-6.5 6.1-12.6 9-18.3s5.8-10.9 8.6-15.5a154.45 154.45 0 0114.8-20.9c1.9-2.3 3.5-4.1 4.6-5.3l1.2-1.3a1.51 1.51 0 01.4-.4 1.76 1.76 0 01-.4.5l-1.2 1.4c-1 1.2-2.5 3-4.4 5.4a159.9 159.9 0 00-14.5 21c-2.8 4.7-5.5 9.9-8.5 15.6s-6 11.8-8.9 18.3a198.16 198.16 0 00-8.4 20.9q-1.8 5.55-3.3 11.4c-1 3.9-2.1 7.9-3.2 11.9a417.36 417.36 0 00-9.8 45.7"/>
    <path class="cls-2" d="M343.5 239.52a10.66 10.66 0 01-.7-1.9c-.4-1.2-1-3-1.6-5.2-1.3-4.4-2.9-10.5-4.5-17.3s-3.4-12.8-4.7-17.2c-.7-2.2-1.2-3.9-1.6-5.2a13.32 13.32 0 01-.5-1.9 14.17 14.17 0 01.8 1.8c.5 1.2 1.1 2.9 1.9 5.1 1.5 4.3 3.2 10.4 5 17.2l4.3 17.3c.5 2.1 1 3.8 1.4 5.2a13.61 13.61 0 00.2 2.1z"/>
    <path class="cls-2" d="M399.8 220.32a8.65 8.65 0 01-2.3.6c-1.5.4-3.6.8-6.2 1.5-5.2 1.3-12.4 3.4-20.1 6.1s-14.7 5.4-19.7 7.5c-2.5 1-4.5 1.9-5.9 2.6a8.49 8.49 0 01-2.2.9 13.24 13.24 0 012-1.2c1.3-.7 3.3-1.7 5.8-2.8 4.9-2.3 11.9-5.1 19.6-7.8a204.76 204.76 0 0120.3-5.9c2.6-.6 4.8-1 6.3-1.3a19.42 19.42 0 012.4-.2zm-72.2 87.2a2.65 2.65 0 01-.5-.6 23.61 23.61 0 01-1.3-2c-1.1-1.7-2.7-4.2-4.5-7.3-3.8-6.2-8.7-15-14-24.8s-10.1-18.5-13.7-24.8l-4.3-7.4-1.2-2a2.51 2.51 0 01-.4-.7 2.65 2.65 0 01.5.6l1.3 2c1.1 1.7 2.7 4.2 4.5 7.3 3.8 6.2 8.7 15 14 24.8s10.1 18.5 13.7 24.8l4.3 7.4c.5.8.9 1.5 1.2 2a1.61 1.61 0 01.4.7z"/>
    <path class="cls-2" d="M400.9 271.62a2.51 2.51 0 01-.7.4l-2.1 1-7.9 3.9c-6.6 3.3-15.7 7.9-25.8 13s-19.2 9.6-25.9 12.8c-3.4 1.6-6.1 2.8-8 3.6l-2.2.9a6.89 6.89 0 01-.8.3 2.51 2.51 0 01.7-.4l2.1-1.1 7.9-3.9c6.6-3.3 15.7-7.9 25.8-13s19.2-9.6 25.9-12.8c3.4-1.6 6.1-2.8 8-3.6l2.2-.9a1.2 1.2 0 01.8-.2z"/>
    <path class="cls-3" d="M668.21 25.37c0-16.3-17.1-26.7-34.6-18.5a20.12 20.12 0 00-9.2 8.8c-4.4 8.5-2.5 18.2 1.5 26.3l13.6 34.5a5.86 5.86 0 007.6 3.3 5.94 5.94 0 003.3-3.3l13.3-34.7c4.7-10.6 4.5-16.4 4.5-16.4zm-16.4 14.1c-11.8 6.8-23.7-5.8-17.2-18.3a9 9 0 013.7-4c11.8-6.8 23.7 5.8 17.2 18.3a9 9 0 01-3.7 4z"/>
  </g>
  <path class="cls-4" d="M710 418.1c0 .1-150 .3-334.9.3s-335-.1-335-.3 149.9-.3 335-.3 334.9.1 334.9.3z"/>
  <g id="phone">
    <path class="cls-5" d="M294.2 418.1l-132.9-.6a28.94 28.94 0 01-28.8-29.1l1.4-333.2A28.94 28.94 0 01163 26.4l132.9.6a28.94 28.94 0 0128.8 29.1l-1.4 333.2a29.07 29.07 0 01-29.1 28.8z"/>
    <path class="cls-6" d="M295.6 38.4l-25.8-.1a6.51 6.51 0 00-6.3 6.5v4.7a6.44 6.44 0 01-6.3 6.5l-50.2-.2a6.39 6.39 0 01-6.2-6.6v-4.7a6.36 6.36 0 00-6.2-6.5h-9.1l-22.5-.2A20.31 20.31 0 00142.6 58l-1.4 325.3a20.38 20.38 0 0020.2 20.4l132.7.6a20.38 20.38 0 0020.4-20.2l1.4-325.3a20.47 20.47 0 00-20.3-20.4z"/>
    <path class="cls-1" d="M142.5 97.1h21.7l19.4 19.4-20.2 20.1-20.7-20.7zm45.5 10.8l-10.9-10.8h24.5zm9.6 8.9l19.1-19.1h66.7s10.2 45.6-30 74.9l-55.8-55.8zm-8.2 6.1L169 143.4l56.5 56.5 20.4-21.1zm-47.2 32l12.8-13.3-12.5-12.5zm20.5-5.4L143 169.1v27.4l40.6 41.5 34.4-32z"/>
    <path class="cls-1" d="M261 178.4s42.1-30.9 28.5-80.6h26.2l-.3 140.4-54.4-59.8zm-7.9 8.1l-20.4 21.2 62.5 62.5 19.1-20.3zm-28.9 27l-32 31.8 64 63.6 32-30.9zm-16.8 159.3l49-50.8 46.5 47.5zm56.6-57.3l51-50.5c0 2.2-.4 104.7-.4 104.7zm-43.6-28.4l28.9 28.9-57.1 59-26.4-31.7zm-78.1 60.3c2.7-.3 72.6-65.7 72.6-65.7l-72.6-75.3v141zm-1 14.9l16.8-14.9 23.3 27.6h-40.1v-10.6"/>
    <path class="cls-4" d="M163 77.2a41.81 41.81 0 01-5-4.3v-.4l.1-.1.1-.1.3-.2.5-.4.9-.8 1.6-1.4a10.1 10.1 0 011.6-1.3 17.38 17.38 0 01-1.3 1.5l-1.5 1.5-.9.9-.5.5-.2.2-.1.1-.1.1v-.4a32.73 32.73 0 014.5 4.6z"/>
    <path class="cls-5" d="M301.3 69.6a1.1 1.1 0 11-1.1-1.1 1.27 1.27 0 011.1 1.1zm-.4 3a1.06 1.06 0 11-1.5 0 1.09 1.09 0 011.5 0zm.4 4.5a1.1 1.1 0 01-2.2-.2 1.12 1.12 0 011.2-1 1.28 1.28 0 011 1v.2z"/>
    <path class="cls-4" d="M207.6 74h46.8v3.9h-46.8V74z"/>
    <path class="cls-7" d="M249.3 144c0-18.2-19.1-29.8-38.7-20.6a22.43 22.43 0 00-10.3 9.9c-4.9 9.5-2.7 20.4 1.7 29.4l15.2 38.5a6.53 6.53 0 008.5 3.7 6.72 6.72 0 003.7-3.7l14.9-38.7c5.2-11.9 5-18.5 5-18.5zM231 159.9c-13.1 7.6-26.4-6.5-19.2-20.4a10.47 10.47 0 014.2-4.4c13.1-7.6 26.4 6.5 19.2 20.4a11.12 11.12 0 01-4.2 4.4z"/>
  </g>
  <g>
    <path class="cls-7" d="M47.6 353.4a12.14 12.14 0 017.3 6.2 20.72 20.72 0 012.2 9.5c.2 6.3-2.4 13.1-5.5 18.6-5.9-3.8-8.3-11.6-9.2-15.6-1.5-6.5-.4-18.9 5.2-18.7M59.2 397a10.46 10.46 0 011.9-10.3 13.73 13.73 0 019.6-4.6c1.7-.1 3.6.1 4.7 1.3a4.51 4.51 0 01.7 4.5 8.69 8.69 0 01-2.8 3.7c-4.1 3.6-8.8 6.2-14.1 5.4"/>
    <path class="cls-4" d="M55.3 417.1v-1.3c0-.9.1-2.1.1-3.5a35.82 35.82 0 012-11.6 23 23 0 016.7-9.6 15.28 15.28 0 013-1.9c.4-.2.7-.3.9-.4a.37.37 0 01.3-.1 20.58 20.58 0 00-10.5 12.1 40.27 40.27 0 00-2.1 11.4c-.1 1.5-.2 2.7-.3 3.5a5.72 5.72 0 01-.1 1.4zm-7.7-54.2a1.09 1.09 0 01.1.5l.3 1.6c.3 1.4.7 3.4 1.1 5.9.9 5 2 11.9 3.1 19.5s1.9 14.5 2.4 19.6q.45 3.75.6 6c0 .7.1 1.2.1 1.6v.6c0-.2-.1-.4-.1-.6a13.7 13.7 0 00-.2-1.6c-.2-1.5-.4-3.5-.7-5.9-.6-5-1.5-11.9-2.5-19.5s-2.2-14.6-3-19.6c-.4-2.5-.7-4.5-1-5.9a15.69 15.69 0 00-.3-1.6 1.27 1.27 0 01.1-.6z"/>
    <path class="cls-7" d="M50.7 402.2A24.14 24.14 0 0035 386.5c-1.9-.6-4.2-.8-5.5.7s-.6 3.8.4 5.5a20.83 20.83 0 0020.8 10"/>
    <path class="cls-4" d="M36.7 392.2l1.2.3a5 5 0 011.3.5 12.63 12.63 0 011.8.8 12.81 12.81 0 012 1.1c.8.5 1.5 1 2.2 1.5a24.74 24.74 0 017.6 9.4 34.52 34.52 0 011.7 4.7 10.62 10.62 0 01.4 1.9c.1.5.1 1 .2 1.4v1.2c-.1 0-.2-1.8-.9-4.5a18.66 18.66 0 00-.7-2.2 24.42 24.42 0 00-1-2.4 28.42 28.42 0 00-3.2-5 34.21 34.21 0 00-4.3-4.2c-.7-.5-1.4-1-2.2-1.5a12.81 12.81 0 00-2-1.1c-2.5-1.3-4.2-1.8-4.1-1.9z"/>
  </g>
  <g id="truck">
    <path class="cls-5" d="M693.67 124.94s14 60.67 15.33 116H489v-116h204.67z"/>
    <path class="cls-4" d="M511.67 122.27h70.67v98h-70.67z"/>
    <path class="cls-8" d="M592.32 164.57c.07-.07 10.86 4.56 24.09 10.58s23.95 10.86 23.87 11.07-10.86-4.56-24.09-10.58-23.95-10.86-23.87-11.07zM610 178.19c0-.14 10.52 4.2 23.34 9.65s23.23 10.07 23.16 10.16-10.52-4.2-23.34-9.65S610 178.26 610 178.19z"/>
    <path class="cls-9" d="M684.25 133.19l9.75 99.25-116.06-21.25v-6.25l103.56 17.25-8.17-84h-93.58v-5h104.5z"/>
    <path class="cls-10" d="M445.66 257.94H436l3.25-178S437 55.19 453.5 44.44c0 33.25-7.84 213.5-7.84 213.5z"/>
    <path class="cls-11" d="M103 293.49h532.97v67.45H103z"/>
    <path class="cls-5" d="M710.33 357.94v-51H701v-32.8l-233.5-1.54v26.67h-49v78.67l77.16-.5s-.16-11.91-.16-17.5a66.5 66.5 0 01133 0v29.5s38 0 61.17-3 20.66-28.5 20.66-28.5z"/>
    <path id="fara" class="cls-12" d="M687.87 316.27h22.54v22.54h-22.54z"/>
    <path class="cls-13" d="M687.87 321.57h9.25v17.25h-9.25z"/>
    <path class="cls-7" d="M441.67 272.27l140 2s17-1.67 26 5.33 24 19.67 24 19.67h78.67v-69l-173-28s-19.67-3.67-21-28.33l.42-38.5h181l-4.5-23.5s1.24-24.25-46.26-31.5-73.5-10.5-73.5-10.5-16.25-40.25-115.25-48.75c-4.75 4.25-6.25 6.25-9 26s-7.58 225.08-7.58 225.08z"/>
    <path class="cls-4" d="M683 228.94l.19 3 .19 3.47.12 2.13V290.63l-.12 2.13-.19 3.47-.19 3-.19-3-.19-3.47-.12-2.13V239.93v-2.37l.12-2.13.19-3.47zM678.67 104.61q-8.68-1.61-17.4-3T643.81 99c-2.91-.43-5.83-.8-8.74-1.19s-5.83-.79-8.75-1.14-5.83-.75-8.76-1.06l-8.77-1-8.79-.81c-2.93-.3-5.86-.51-8.79-.74s-5.86-.49-8.8-.63l-8.81-.51-8.81-.31c-2.94-.13-5.88-.14-8.82-.15s-5.88-.1-8.82 0l-8.81.24h-2c-.66 0-1.32.06-2 .09s-1.31.13-2 .2l-1 .12-1 .2c-.64.15-1.3.23-1.93.44l-1.89.58c-.62.2-1.22.5-1.83.75l-.91.39c-.3.14-.58.31-.87.47l-1.73 1c-.56.35-1.08.75-1.62 1.13a26.88 26.88 0 00-3.07 2.49l-.74.65c-.24.23-.45.48-.68.72l-1.36 1.45-.68.72-.61.78-1.22 1.57a35 35 0 00-2.29 3.26l-1.1 1.66c-.37.55-.66 1.15-1 1.73-.64 1.16-1.32 2.31-1.94 3.49l-1.73 3.61c-.28.6-.59 1.2-.85 1.81l-.76 1.85-1.52 3.7c-.49 1.24-.9 2.51-1.36 3.77l-1.33 3.78v-.08c-.75 5.74-1.44 11.48-2 17.24-.28 2.88-.6 5.76-.84 8.64s-.53 5.76-.75 8.65q-.71 8.65-1.26 17.32t-1 17.34c-.61 11.56-1 23.13-1.47 34.7s-.69 23.08-1 34.69q.27-17.37.69-34.74.22-8.68.54-17.36t.77-17.36q.41-8.68.93-17.35t1.19-17.34c.21-2.89.47-5.77.72-8.66s.54-5.77.81-8.65c.57-5.77 1.24-11.52 2-17.27v-.08l1.32-3.8c.45-1.26.86-2.55 1.35-3.8l1.52-3.74.76-1.87c.27-.62.57-1.22.85-1.83l1.73-3.65c.63-1.19 1.3-2.36 1.95-3.54.34-.58.63-1.19 1-1.75l1.11-1.69a35.82 35.82 0 012.32-3.32l1.25-1.6.63-.79.7-.74 1.39-1.48c.23-.24.46-.5.7-.73l.77-.67a27.81 27.81 0 013.17-2.55c.56-.38 1.1-.8 1.68-1.16l1.79-1c.3-.16.59-.34.9-.48l.94-.4c.63-.25 1.25-.55 1.89-.76l2-.59c.65-.21 1.33-.29 2-.45l1-.2 1-.12c.67-.07 1.35-.19 2-.2s1.35-.08 2-.08h2l8.84-.21c2.95-.12 5.89 0 8.84 0s5.89 0 8.83.19l8.83.35 8.82.55c2.94.16 5.87.44 8.81.67s5.87.46 8.8.78l8.71.86 8.77 1c2.93.32 5.84.73 8.76 1.09s5.84.76 8.75 1.17 5.83.83 8.73 1.29q8.73 1.33 17.43 2.83t17.38 3.23z"/>
    <path class="cls-4" d="M445.66 126.62h27.93l7.66.17 78.26 1.72 78.26 1.72c2.67.07 5.23.09 7.66.18l6.9.27 11.22.44 9.78.39H645.4c-2.43 0-5-.11-7.66-.16l-78.26-1.72-78.26-1.72-7.66-.17-6.9-.27-11.22-.47zM573.5 69.94l-5.4-.06-14.23-.23-20.11-.44-23.05-.61-23-.74-20.1-.74-14.22-.6-5.39-.25 5.4.06 14.23.23 20.05.44 23.05.61 23 .74 20.1.74 14.22.6z"/>
    <path class="cls-4" d="M572.5 274.14l-.19-6.22-.19-7.14-.12-4.39V152v-4.87l.12-4.39.19-7.14.19-6.22.19 6.22.19 7.14.12 4.39V256.38l-.12 4.39-.19 7.14zM605.8 271c.3 0 .5-.1.8-.1a4.85 4.85 0 002.1-.8 4.91 4.91 0 002.1-2.8 8.33 8.33 0 00.3-2.2 5.33 5.33 0 00-.6-2.4 5.27 5.27 0 00-4.6-2.8h-22.2a5.2 5.2 0 00-5.2 4.6 6.08 6.08 0 00.6 3.5 5.82 5.82 0 002.6 2.3 7.51 7.51 0 003.3.4h9.2l8.5.1h2.3a2.2 2.2 0 01.8.1h-3.1l-8.5.1h-10.9a5.84 5.84 0 01-1.8-.4 5.7 5.7 0 01-2.8-2.5 6.33 6.33 0 01-.7-3.8 5.74 5.74 0 015.7-5.1h22.2a5.41 5.41 0 014.9 3.1 5.73 5.73 0 01.6 2.5 8.52 8.52 0 01-.3 2.3 5.48 5.48 0 01-2.3 2.9 5.84 5.84 0 01-2.2.8 3.09 3.09 0 00-.8.2z"/>
    <path class="cls-8" d="M603 256.39c0 .1-6.1.3-13.5.4s-13.5 0-13.5-.1 6.1-.3 13.5-.4 13.5-.1 13.5.1zM502.25 131.61l7.21-.11 8.27-.12 5.09-.08 5.64.05 57.66.54 57.66.54c2 0 3.85 0 5.64.06l5.09.17 8.27.28 7.21.24-7.21.1-8.27.12-5.09.07h-5.64l-57.66-.54-57.66-.54-5.64-.06-5.09-.17-8.27-.28zM689.67 299.27c-.13-2.93-.23-5.86-.29-8.79s-.15-5.86-.15-8.79l-.06-8.79.05-8.79v-.45h5.11l4.67.1c1.56 0 3.11.06 4.67.12s3.11.1 4.67.18c-1.56.08-3.11.12-4.67.18s-3.11.1-4.67.12l-4.67.1h-4.67l.44-.44.05 8.79-.06 8.79c0 2.93-.1 5.86-.15 8.79s-.15 5.95-.27 8.88zM693 141.11l.78 3.4c.46 2.17 1.15 5.26 1.84 9s1.51 8.1 2.24 12.79 1.47 9.7 2.14 14.7c.33 2.51.6 5 .88 7.51s.51 4.92.75 7.29.41 4.66.58 6.83.32 4.23.43 6.12c.26 3.79.36 7 .44 9.18l.11 3.48-.3-3.47-.33-4-.48-5.16c-.16-1.89-.35-3.94-.59-6.1l-.72-6.8c-.26-2.36-.51-4.8-.82-7.27s-.6-5-.94-7.49c-.6-5-1.3-10-2-14.73s-1.32-9.08-1.94-12.83-1.1-6.88-1.48-9.06z"/>
    <g>
      <rect class="cls-4" x="654.62" y="175.4" width="27" height="57.04" rx="6" ry="6"/>
      <path class="cls-5" d="M675.62 232.44h-1.77c-1.16 0-2.85 0-5 .08l-7.78.26h-1.17a6.78 6.78 0 01-1.25-.24 6.3 6.3 0 01-4.52-6.34V183a10.66 10.66 0 01.38-3.8 6.54 6.54 0 016.12-4.34H676.27a7 7 0 011 .18 6.14 6.14 0 011.79.77 6.49 6.49 0 013 4.74 17.44 17.44 0 01.05 1.82v34.06l-.11 4.87-.15 4.21a7.24 7.24 0 01-.7 3.53 6 6 0 01-5.05 3.39zm0 0h.45a5.82 5.82 0 003.15-1.24A5.52 5.52 0 00681 229a6.84 6.84 0 00.46-3.44l-.15-4.21-.14-4.79v-34.11a16.9 16.9 0 000-1.7 5.52 5.52 0 00-5.75-4.85h-14.8a5.54 5.54 0 00-5.18 3.68 9.82 9.82 0 00-.32 3.47v43.17a5.61 5.61 0 001.86 4.34 5.54 5.54 0 001.92 1.19 6.11 6.11 0 001 .27c.17 0 .38 0 .57.05s.37 0 .55 0l7.78.26c2.16.08 3.85.06 5 .08z"/>
    </g>
    <path class="cls-8" d="M485.75 360.94v-2.7c0-.88.06-2 .16-3.24l.19-2 .28-2.32a73 73 0 012.39-11.68 75.38 75.38 0 015.76-14.27 77.58 77.58 0 0110.38-15 75.76 75.76 0 017.08-7 71.41 71.41 0 018.31-6.29 76.61 76.61 0 0119.7-9.19 79.2 79.2 0 0111-2.46 75.54 75.54 0 0122.56 0 79.2 79.2 0 0110.95 2.46 76.61 76.61 0 0119.72 9.21 71.53 71.53 0 018.31 6.29 75.76 75.76 0 017.08 7 77.58 77.58 0 0110.38 15 75.34 75.34 0 015.73 14.25 73 73 0 012.39 11.62l.28 2.38.15 2.05c.1 1.27.16 2.36.16 3.24v2.7l-.09-2.7c0-.88-.09-2-.21-3.23l-.18-2-.23-2.4a72.73 72.73 0 00-2.57-11.54 79.08 79.08 0 00-5.96-14.12A76.94 76.94 0 00619 310.25a75 75 0 00-7.08-6.89c-1.26-1.12-2.62-2.14-4-3.21-.68-.52-1.4-1-2.11-1.51s-1.42-1-2.17-1.46a75.71 75.71 0 00-19.51-9 78.25 78.25 0 00-10.82-2.4 77.58 77.58 0 00-22.28 0 78.25 78.25 0 00-10.82 2.4 75.71 75.71 0 00-19.51 9c-.75.46-1.47 1-2.17 1.46s-1.42 1-2.11 1.51c-1.35 1.07-2.72 2.08-4 3.21a75 75 0 00-7.08 6.89A76.94 76.94 0 00495 325a79 79 0 00-5.91 14.11 72.74 72.74 0 00-2.57 11.54l-.29 2.35-.23 2c-.12 1.27-.2 2.35-.21 3.23z"/>
    <path class="cls-4" d="M698.08 306.94c-2.51.15-5 .26-7.54.38-1.26 0-2.51.15-3.77.13H683l.5-.5v57l-.09 2.05-.41 8.44-.41-8.44-.09-2.11v-57.45h4.27c1.26 0 2.51.09 3.77.13 2.51.11 5.03.22 7.54.37z"/>
    <path class="cls-4" d="M639.5 338.81s.68-.08 1.87-.19l2.15-.19 1.32-.12h32.82l1.32.12 2.15.19 1.87.19-1.87.19-2.15.19-1.32.12h-32.82l-1.32-.12-2.15-.19c-1.19-.1-1.87-.19-1.87-.19zM429.83 326.77l13.29-.19 13.29-.13 13.29-.1h14.01l-.3.66c-.31.67-.59 1.39-.86 2.1s-.53 1.43-.76 2.16c-.49 1.45-.91 2.92-1.3 4.4-.21.74-.37 1.48-.55 2.23s-.34 1.49-.5 2.24c-.33 1.5-.58 3-.85 4.51s-.48 3-.64 4.55-.33 3-.46 4.58-.18 3.06-.28 4.59c0 .77 0 1.53-.06 2.3V363.41h-.43c-7.81 0-15.61-.09-23.42-.15l-11.71-.12-11.71-.17 11.71-.17 11.71-.12c7.81-.06 15.61-.14 23.42-.15l-.44.44v-2.32-2.32c.09-1.54.11-3.09.26-4.63s.24-3.08.44-4.62.4-3.07.62-4.6.51-3.05.86-4.56c.16-.76.32-1.51.51-2.26s.36-1.51.57-2.25c.4-1.49.84-3 1.34-4.45.24-.74.51-1.46.78-2.19s.56-1.44.9-2.17l.41.66h-13.29l-13.29-.1-13.27-.16z"/>
    <path class="cls-8" d="M638.75 367.94l1.84-.1c1.17 0 2.85-.14 4.86-.18s4.35-.13 6.87-.16 5.19 0 7.87-.06 5.36 0 7.87.06 4.86.12 6.87.16 3.68.14 4.86.18l1.84.1-1.84.1c-1.17 0-2.85.14-4.86.18s-4.35.13-6.87.16-5.19 0-7.87.06-5.36 0-7.87-.06-4.86-.11-6.87-.16-3.68-.14-4.86-.18zM636 326.77l2-.1c1.25 0 3-.14 5.17-.18s4.64-.13 7.31-.15l8.38-.07 8.38.07c2.68 0 5.17.11 7.31.15s3.92.14 5.17.18l2 .1-2 .1c-1.25 0-3 .14-5.17.18s-4.64.14-7.31.15l-8.38.07-8.38-.07c-2.68 0-5.17-.11-7.31-.15s-3.92-.14-5.17-.18z"/>
    <path class="cls-4" d="M187.95 296.93a5.5 5.5 0 01-.47-11l80.71-7a5.5 5.5 0 11.95 11l-80.71 7z"/>
    <g id="wheel1">
      <circle class="cls-4" cx="562.25" cy="360.94" r="57.5"/>
      <circle class="cls-14" cx="562.25" cy="360.94" r="32.25"/>
      <circle class="cls-15" cx="562.25" cy="360.94" r="20"/>
    </g>
    <g id="wheel2">
      <circle class="cls-4" cx="172.33" cy="360.94" r="57.5"/>
      <circle class="cls-14" cx="172.33" cy="360.94" r="32.25"/>
      <circle class="cls-4" cx="172.33" cy="360.94" r="20"/>
    </g>
    <g id="tank">
      <rect class="cls-14" x="251" y="302.27" width="160.33" height="74.67" rx="8.5" ry="8.5"/>
      <path class="cls-8" d="M255 369.94l-.28-31.74-.08-15.37a16 16 0 01.26-4.22 7.78 7.78 0 016.4-5.67 15.89 15.89 0 012.26-.09h2.22l37.29-.07 37.29.07 32.54.15 31.74.28-31.74.28-32.53.15-37.29.07-37.29-.07h-2.22a15.15 15.15 0 00-2.14.07 7 7 0 00-5.78 5 15.44 15.44 0 00-.28 4l-.08 15.37z"/>
      <ellipse class="cls-5" cx="316.67" cy="306.61" rx="8.67" ry="3.67"/>
      <path class="cls-5" d="M383 299.44h6v80h-6zM338.67 299.44h6v80h-6zM281.67 299.44h6v80h-6z"/>
    </g>
    <path class="cls-5" d="M245.83 376.94h-10v-16a63.5 63.5 0 00-127 0v16h-10v-16a73.5 73.5 0 01147 0v16z"/>
    <path class="cls-8" d="M100.33 359.61v-2.54c0-.83.06-1.85.15-3l.14-1.93.26-2.18a68.71 68.71 0 012.28-10.96 70.85 70.85 0 015.42-13.44 73 73 0 019.77-14.1 71.32 71.32 0 016.67-6.61 67.13 67.13 0 017.82-5.92 72.13 72.13 0 0118.56-8.68 74.57 74.57 0 0110.31-2.32 71 71 0 0121.24 0 74.56 74.56 0 0110.31 2.32 72.13 72.13 0 0118.56 8.68 67.25 67.25 0 017.82 5.92 71.33 71.33 0 016.67 6.61 73 73 0 019.77 14.1A70.81 70.81 0 01241.5 339a68.71 68.71 0 012.25 10.94l.26 2.18.14 1.93c.09 1.2.15 2.22.15 3v2.54l-.09-2.54c0-.83-.09-1.85-.2-3l-.17-1.93-.3-2.17a68.45 68.45 0 00-2.42-10.85 74.54 74.54 0 00-5.57-13.28 72.39 72.39 0 00-9.82-13.88 70.56 70.56 0 00-6.66-6.48c-1.18-1.06-2.47-2-3.74-3-.64-.49-1.32-.94-2-1.42s-1.34-.94-2-1.38a71.23 71.23 0 00-18.33-8.54 73.62 73.62 0 00-10.18-2.25 73.08 73.08 0 00-21 0 73.62 73.62 0 00-10.18 2.25 71.23 71.23 0 00-18.36 8.51c-.7.43-1.38.89-2 1.38s-1.34.93-2 1.42c-1.27 1-2.56 2-3.74 3a70.56 70.56 0 00-6.66 6.48 72.39 72.39 0 00-9.82 13.88 74.49 74.49 0 00-5.57 13.28 68.46 68.46 0 00-2.42 10.86l-.29 2.17-.16 1.9c-.11 1.2-.19 2.21-.2 3z"/>
  </g>
  <g>
    <path class="cls-7" d="M177.4 244.2c-4-21.9-6.7-25.2-8.9-32.8s-5.9-12.4-10.3-14.1c-3-1.2-18.1-6.6-23.3-4.8a65.73 65.73 0 00-14.5 7.3 19.24 19.24 0 00-7.6 9.7l-8 22.6 14.1 14 7.1-15 7.7 18-1.1 18.1 43.9 11.8c3.8-6.3 3.2-22.4.9-34.8z"/>
    <g class="cls-16">
      <path d="M166 220.4c-1.9 11.4-2.3 13-4.2 24.4-.7 3.9-2.6 10-5.4 12.8-2.1 2.1-4.1 4.1-6.9 4.8s-6.7.7-9.2-.4-4.6-6-3.6-8.5c3.7.8 4.9 2 8.1 0 2.8-1.8 6.8-5.7 8.3-8.7 6.3-12.4 8.1-12.9 12.9-24.4"/>
    </g>
    <path class="cls-4" d="M134.2 242.4a24.9 24.9 0 01-1.9-3l-4.5-7.4-4.6-7.3a32.07 32.07 0 01-1.9-3.1 3.74 3.74 0 01.6.7q.6.75 1.5 2.1c1.3 1.8 3 4.4 4.8 7.2s3.3 5.5 4.4 7.5c.5 1 1 1.8 1.2 2.3a6.89 6.89 0 01.4 1zm30.6 20.5a4.18 4.18 0 01-1 .4 5 5 0 01-1.3.3c-.6.1-1.1.3-1.7.4a22.5 22.5 0 01-4.4.4 31.89 31.89 0 01-5.4-.5 24.62 24.62 0 01-5.3-1.5 29.28 29.28 0 01-4-1.9 8.51 8.51 0 01-1.4-.9 7.63 7.63 0 01-1.1-.8 5.72 5.72 0 01-.8-.7c.1-.1 1.3.9 3.5 2.1a28.75 28.75 0 004 1.8 29.26 29.26 0 0010.6 1.9 32.53 32.53 0 004.4-.3c2.4-.4 3.9-.8 3.9-.7z"/>
    <path class="cls-17" d="M147.2 228.8c-.1.4-4.8 9.8-4.8 9.8l-22.3-11.7-2.3-9.6a6 6 0 00-7.2-4.4l-6.6 2.7a1.63 1.63 0 00-1.1 1.3c-.1.5 0 1 .9.9 1.6-.1 5-.5 5-.5l-1.6 5.5a5.84 5.84 0 00.4 4.3l1 1.9 2.2 3.5h-.1s21.7 22.3 33.8 23.7c7.3.9 15.6-19.6 15.6-19.6l-12.9-7.8z"/>
    <path class="cls-18" d="M108.7 217.5l.5-.5a3.37 3.37 0 011.7-.5 1.75 1.75 0 011.5 1c.2.4.1.8 0 .7s-.1-.4-.2-.6a2.22 2.22 0 00-1.3-.8 3.17 3.17 0 00-1.6.4.86.86 0 01-.6.3zm2.8 3.4l-.4-.4a2.25 2.25 0 00-2.3-.9 2.18 2.18 0 00-.6.1.55.55 0 01.5-.3 2.28 2.28 0 012.6 1 .48.48 0 01.2.5z"/>
    <path class="cls-7" d="M151.8 199.1l-6 28.6 16 9.6 6.2-17.6s-2.6-21.3-16.2-20.6z"/>
    <path class="cls-1" d="M160.4 199.6c-.1.1-.3.2-.4.3-.3.1-.7.4-1.2.6-1.1.5-2.6 1.3-4.6 2.2a68.34 68.34 0 01-15.9 5 38.74 38.74 0 01-16.6-.6 26.4 26.4 0 01-4.7-1.7l-1.2-.6c-.1-.1-.3-.2-.4-.3a8.65 8.65 0 011.7.7 44.19 44.19 0 004.8 1.5 41.2 41.2 0 0016.4.4 72.12 72.12 0 0015.8-4.8c2-.8 3.5-1.5 4.6-2 .6-.3 1.2-.5 1.7-.7z"/>
    <path class="cls-1" d="M164.6 202.8c-.1.1-.3.2-.4.3l-1.3.9a15.92 15.92 0 01-2.2 1.3c-.9.4-1.8 1-2.9 1.5l-1.7.8c-.6.3-1.3.5-1.9.8a37.6 37.6 0 01-4.4 1.5 61.52 61.52 0 01-20.9 2.5c-1.6-.1-3.2-.2-4.6-.4l-2.1-.3-1.9-.4a21.31 21.31 0 01-3.2-.8 21.72 21.72 0 01-2.4-.7l-1.5-.5a1.06 1.06 0 01-.5-.2.75.75 0 01.5.1l1.5.4c.7.2 1.4.4 2.4.6s2 .5 3.2.7l1.9.3 2 .3c1.4.2 3 .3 4.6.4a62.85 62.85 0 0020.7-2.4c1.5-.5 3-.9 4.3-1.4.7-.3 1.3-.5 1.9-.7l1.8-.8c1.1-.5 2.1-1 3-1.4a23.85 23.85 0 002.2-1.2l1.4-.8a.76.76 0 01.5-.4z"/>
    <path class="cls-4" d="M161.8 237.3a8.27 8.27 0 01-1.3-.7l-3.5-2-12-6.9-.1-.1v-.2c.4-2.1.9-4.4 1.4-6.8.7-3.6 1.4-6.9 2-10 .3-1.5.6-3 .9-4.4a16.27 16.27 0 011.3-3.7 7.29 7.29 0 014.1-3.8 4 4 0 011.5-.3.75.75 0 01.5.1 6.47 6.47 0 00-2 .4 7.6 7.6 0 00-3.9 3.8 25.33 25.33 0 00-1.2 3.6c-.3 1.4-.6 2.8-.9 4.4-.6 3.1-1.3 6.5-2 10-.5 2.4-.9 4.7-1.4 6.8l-.1-.3 11.9 7.1 3.4 2.1a8.51 8.51 0 011.4.9zm4.9-18.4a8.17 8.17 0 01-.1 2.7 40.52 40.52 0 01-3.2 12.4 9.45 9.45 0 01-1.3 2.4 10.64 10.64 0 01.9-2.5 58.61 58.61 0 003.2-12.3 18.63 18.63 0 01.5-2.7z"/>
    <path class="cls-5" d="M79.9 377.9l-.2 15.3s-15.6 5-15.9 7.8l29.6 1.4 1.3-23.8-14.8-.7z"/>
    <path class="cls-2" d="M89 392.3a1.14 1.14 0 11-.6 2.2 1.24 1.24 0 01-.8-1.5 1.17 1.17 0 011.6-.6m4.2 9.9v-2.4l-28.4-.5s-1.3.5-1.2 1.5z"/>
    <path class="cls-4" d="M79.3 393a15.56 15.56 0 011.4.7c.4.4.8.7 1.2 1.1.2 0 0-.9-.9-1.5a1.63 1.63 0 00-1.7-.3zm-3.2 1.1a8.37 8.37 0 011 1 8.26 8.26 0 00.7 1.3 1.84 1.84 0 00-1.4-2.2c-.1 0-.2-.1-.3-.1zm-1.9 3.7a1.36 1.36 0 000-1.5 1.43 1.43 0 00-1.1-1l.6 1.2a3 3 0 00.5 1.3zm5.5-8.3a8.08 8.08 0 001.6.1l1.5.3a1.76 1.76 0 00-1.5-.8 1.56 1.56 0 00-1.6.4z"/>
    <g class="cls-19">
      <path d="M79.9 380.9l-.1 2.7 14.6.6.1-2.4z"/>
    </g>
    <path class="cls-4" d="M79.8 386.4a2.57 2.57 0 001.5.1 9.36 9.36 0 001.6-.4 3.55 3.55 0 00.9-.4c.2-.1.3-.2.5-.3a.75.75 0 00.1-.8 1.27 1.27 0 00-.6-.4h-.6l-.9.3a6.38 6.38 0 00-1.4.8 2.33 2.33 0 00-1.1 1.1 3.43 3.43 0 001.2-.8 6.11 6.11 0 011.4-.7 2.92 2.92 0 01.9-.2.62.62 0 01.7.1c.1.1 0 .1 0 .2a.53.53 0 01-.3.2c-.3.1-.5.3-.8.4a8.8 8.8 0 01-1.5.5c-.6.1-1.1.2-1.6.3z"/>
    <path class="cls-4" d="M80 386.7a1.79 1.79 0 00.4-1.4 4.33 4.33 0 00-.1-1.6l-.3-.9a1.22 1.22 0 00-.9-.8.55.55 0 00-.6.4 2.57 2.57 0 01-.2.5 1.7 1.7 0 000 1 3.14 3.14 0 00.6 1.6 1.76 1.76 0 001.2 1 4.44 4.44 0 01-.8-1.1 3.26 3.26 0 01-.4-1.4 2.77 2.77 0 01.1-.9c.1-.3.2-.6.3-.5a1.21 1.21 0 01.5.5c.1.3.2.5.3.8a7.72 7.72 0 01.2 1.5 1.81 1.81 0 00-.3 1.3zm60.2-119.3S94 248 79.7 247.2c-9-.5-15.8 5.2-14.5 14.5.6 4.6 13.4 59 13.4 59l19.5-8.9-9.4-37.6 38 18.5 13.5-25.3z"/>
    <path class="cls-5" d="M82.8 264.7c-.2.1 1.4 2.1 3 4.7s2.7 4.9 2.9 4.8-.7-2.5-2.3-5.1-3.4-4.5-3.6-4.4z"/>
    <path class="cls-5" d="M79.1 266.9c-.1.2 2.2 1.6 5 3.7s4.8 3.8 5 3.6-1.9-2.2-4.6-4.2-5.4-3.3-5.4-3.1z"/>
    <path class="cls-4" d="M176.3 279.1s-5.8 7.5-11.4 9.5c-7 2.6-58.5 26.9-58.5 26.9s-9.3 69.4-8.6 66.5l-21.6-.5 2.3-63.9c.3-8.2 6.8-17.6 13.9-21.8l47.7-28.4 36.2 11.7z"/>
    <path class="cls-5" d="M78.2 329.2a2.77 2.77 0 00.1-.9c0-.6.1-1.5.1-2.5a71.62 71.62 0 01.9-9.2A30.15 30.15 0 0184 304a24.81 24.81 0 015.5-5.7 68.92 68.92 0 017.3-4.6c10.4-5.9 19.3-12 25.9-16.1 3.3-2.1 6-3.8 7.8-4.9l2.1-1.3a1.79 1.79 0 00.7-.5 3 3 0 00-.8.4c-.5.3-1.3.7-2.2 1.2-1.9 1.1-4.6 2.7-8 4.7-6.7 4.1-15.7 10-26 16a71.13 71.13 0 00-7.4 4.7 24.61 24.61 0 00-5.7 5.9 31.69 31.69 0 00-4.6 13 72.6 72.6 0 00-.6 9.3v2.5a.64.64 0 01.2.6zm79.1-42.8a20.27 20.27 0 00-1.3-1.8 13.05 13.05 0 01-2-10 16 16 0 00.5-2.1 5.38 5.38 0 00-1 2 11.35 11.35 0 00-.2 5.5 12.3 12.3 0 002.3 4.9 5 5 0 001.7 1.5z"/>
    <path class="cls-5" d="M84.2 381.4a2.27 2.27 0 00.1-.4c0-.3.1-.6.1-1 .1-1 .3-2.3.4-4 .3-3.6.8-8.6 1.5-14.9.3-3.1.6-6.6 1-10.3s.7-7.6 1-11.8c.3-4.4.8-8.7 1.5-13a53 53 0 014-13.4 44.9 44.9 0 017.8-11.5 72.72 72.72 0 019.8-8.6 182.33 182.33 0 0118.7-11.7c5.5-3.1 9.8-5.8 12.7-7.8a36.78 36.78 0 003.3-2.4l.8-.6c.1-.1.2-.1.3-.2a.53.53 0 00-.3.2l-.9.6c-.8.5-1.9 1.3-3.4 2.3-2.9 1.9-7.3 4.5-12.8 7.6a189.68 189.68 0 00-18.8 11.6 74.5 74.5 0 00-9.9 8.6 45.8 45.8 0 00-7.9 11.6 53.71 53.71 0 00-4 13.5 125.44 125.44 0 00-1.4 13c-.3 4.1-.6 8.1-1 11.8s-.6 7.1-.9 10.3c-.5 6.3-1 11.3-1.3 14.9-.1 1.7-.2 3.1-.3 4 0 .4-.1.8-.1 1v.6z"/>
    <path class="cls-17" d="M125.7 196.9c-.3-1.9-.4-3.3-.4-3.3s-6.4 0-9-8c-1.3-4-2.2-10.7-2.7-16.2a8.68 8.68 0 017.9-9.5h.4l17.1-.9.4 2.6 4.5 32.9a9.18 9.18 0 01-18.2 2.4z"/>
    <path class="cls-4" d="M116 174.1a1 1 0 001.2.9.9.9 0 00.9-1.1v-.1a.9.9 0 00-1.1-.9h-.1a.92.92 0 00-.9 1v.2zm-.4-1.5a11.92 11.92 0 012-.8 17 17 0 012.2.1c.2-.2-.1-.3-.5-.5a2.78 2.78 0 00-1.8-.3 3.46 3.46 0 00-1.6.8c-.3.4-.4.7-.3.7zm11.1-.3a1 1 0 001.2.9 1 1 0 00.9-1.1v-.1a1 1 0 00-1.2-.9 1.2 1.2 0 00-.9 1.2zm0-1.2a11.92 11.92 0 012-.8c1.1-.2 2 .3 2.1.1s-.1-.3-.5-.5a3.61 3.61 0 00-1.8-.3 3.46 3.46 0 00-1.6.8 1.17 1.17 0 00-.2.7zm-2.8 9a6.05 6.05 0 00-1.9 0 .66.66 0 01-.7-.2 1.39 1.39 0 010-.9c.2-.7.3-1.5.5-2.3a40.85 40.85 0 001-6.1 32.92 32.92 0 00-1.5 6c-.2.8-.3 1.6-.5 2.4a2 2 0 000 1.1 1 1 0 00.5.4h.5a9.81 9.81 0 002.1-.4z"/>
    <path class="cls-18" d="M125.3 193.6a21.38 21.38 0 0010.5-4.7s-1.8 6.1-10.1 6.6l-.4-1.9z"/>
    <path class="cls-4" d="M127.4 180.4c-.2 0 0 1.2-.9 2.3s-2.2 1.1-2.2 1.3.3.2.9.1a3.52 3.52 0 001.9-1 2.64 2.64 0 00.7-1.9 1.2 1.2 0 00-.4-.8zm-1.7-13.7c.2.3 1.3 0 2.6-.1s2.5.1 2.6-.2-.2-.4-.6-.6a4.35 4.35 0 00-4 .2.86.86 0 00-.6.7zm-10.3 2.6c.2.2 1-.2 1.9-.3s1.8-.1 1.9-.4a.63.63 0 00-.5-.6 3 3 0 00-1.6-.2 2.48 2.48 0 00-1.4.8.78.78 0 00-.3.7z"/>
    <path class="cls-4" d="M140 159.4a4 4 0 00-3.7-3.2l-1.8-.1a8.33 8.33 0 00-9-4 13.1 13.1 0 01-2.7.6 20.25 20.25 0 01-3.3-.9 4.8 4.8 0 00-5.5 3.6 6.4 6.4 0 00-5.5 1.1 4.33 4.33 0 00-1.3 5.2c.4.7 1 1.3 1.4 2.1.6 1.2.3 2.7.7 4a5.37 5.37 0 004.7 3.3 15.37 15.37 0 006-.9l11.1-9.5c1 .6 1.7 4.3 5.4 5 0 0 .7 7.2 3.5 6.6 2-.4.8-8.4 0-12.9z"/>
    <path class="cls-17" d="M139.3 169.4c.1-.1 4.5-2.4 5.3 2.4s-4.1 4.6-4.2 4.5-1.1-6.9-1.1-6.9z"/>
    <path class="cls-18" d="M141.6 174.2c.1 0 .2.1.3.1a.66.66 0 00.6-.1 1.92 1.92 0 00.6-2 3.58 3.58 0 00-.4-1.1.75.75 0 00-.7-.5.35.35 0 00-.4.3v.3a.37.37 0 01-.1-.3c0-.1.1-.2.1-.3a.76.76 0 01.4-.2 1.1 1.1 0 011 .6 3 3 0 01.5 1.3 2.09 2.09 0 01-.9 2.3 1.1 1.1 0 01-.8 0 1.42 1.42 0 01-.2-.4z"/>
    <path class="cls-5" d="M115 153.7a2.65 2.65 0 00.5.6 5.67 5.67 0 001.8 1.2 5.78 5.78 0 003.2.1 24 24 0 003.8-1.2 9.59 9.59 0 014.1-.7 4.1 4.1 0 013.1 1.4 2.88 2.88 0 01.9 2.1 2 2 0 01-.1.8c0-.3-.1-.5-.1-.8a3.52 3.52 0 00-1-1.9 4.45 4.45 0 00-2.9-1.2 12.8 12.8 0 00-3.9.7 29.07 29.07 0 01-3.9 1.2 6.61 6.61 0 01-3.4-.3 3.56 3.56 0 01-1.8-1.4.85.85 0 01-.3-.6z"/>
    <path class="cls-5" d="M131.1 158.3c-.2-.2-.5-.4-.7-.6a4.81 4.81 0 00-2.4-.7 7.4 7.4 0 00-3.6.9 41.37 41.37 0 01-4.3 2 10.94 10.94 0 01-8.5-.9 8.34 8.34 0 01-2.1-1.6 5.55 5.55 0 01-.6-.8 19.41 19.41 0 002.9 2.1 11.12 11.12 0 008.2.8c1.5-.6 2.9-1.3 4.3-2a7.41 7.41 0 013.9-.8 4.47 4.47 0 012.5.9 2.15 2.15 0 01.4.7z"/>
    <path class="cls-17" d="M116.3 239.5l-23.2-19.8-7.7 1.7s8.1 16.8 13.9 22.9c0 0 5.8 7.7 15.3 4.4s1.7-9.2 1.7-9.2z"/>
    <path class="cls-5" d="M91.3 197.9h-9.9a2.61 2.61 0 00-2.4 2.6.9.9 0 00.1.5l9.9 19.3a2.2 2.2 0 002 1.2h12a1.77 1.77 0 001.5-1.9 1.42 1.42 0 00-.2-.6l-9.6-18.9a3.81 3.81 0 00-3.4-2.2z"/>
    <path class="cls-4" d="M90.7 199.1h-9.9a1.67 1.67 0 00-1.7 1.6 2.35 2.35 0 00.2.8l9.7 18.9a2.4 2.4 0 002 1.2h11.9a1 1 0 001-1 .6.6 0 00-.1-.4l-9.6-18.9a4 4 0 00-3.5-2.2z"/>
    <path class="cls-17" d="M89.8 207l-6 2.4-1.3 4.8 2.9 7.2L96 223l-3.1-3.2.4-2.8s3-.9 3-1.4-.4-2-.8-2.1a23.55 23.55 0 00-3.5 1.1s3.7-2.9 3.6-3.4-.5-1.7-1.2-1.8-6.7 2.7-6.7 2.7l-1 2.2-.8-3.5c-.1.1 5.2-1.4 3.9-3.8z"/>
    <path class="cls-18" d="M90.6 218.4a1.42 1.42 0 01-.2-.6 3.28 3.28 0 011-2.8.6.6 0 01.6-.3 6.19 6.19 0 00-1.1 1.7 4.43 4.43 0 00-.3 2zm-2.9-1.1a7.77 7.77 0 00.2-1.6 4.67 4.67 0 01.3-1.7 2.63 2.63 0 011.5-1.6c1.4-.5 2.7-.9 3.7-1.3a7.49 7.49 0 011.6-.4 4.71 4.71 0 01-1.5.6c-.9.4-2.2.8-3.6 1.3a4.05 4.05 0 00-.9.5 2.18 2.18 0 00-.5.8 4.67 4.67 0 00-.3 1.7 3.1 3.1 0 01-.5 1.7zm-1.4-1.1a2.44 2.44 0 010-1.2 2 2 0 01.3-1.1 2.44 2.44 0 010 1.2 1.13 1.13 0 01-.3 1.1z"/>
    <path class="cls-6" d="M86.2 202.8a1.3 1.3 0 101.3-1.3 1.21 1.21 0 00-1.3 1.3z"/>
  </g>
</svg>